<?xml version="1.0" standalone="no"?>
<!DOCTYPE svg PUBLIC "-//W3C//DTD SVG 20010904//EN"
 "http://www.w3.org/TR/2001/REC-SVG-20010904/DTD/svg10.dtd">
<svg version="1.0" xmlns="http://www.w3.org/2000/svg"
 width="300.000000pt" height="300.000000pt" viewBox="0 0 300.000000 300.000000"
 preserveAspectRatio="xMidYMid meet">
<metadata>
Created by potrace 1.10, written by Peter Selinger 2001-2011
</metadata>
<g transform="translate(0.000000,300.000000) scale(0.100000,-0.100000)"
fill="#761a1a" stroke="none">
<path d="M1414 2378 c-19 -20 -34 -49 -39 -73 -8 -44 -31 -94 -69 -144 -14
-19 -26 -42 -26 -51 0 -9 -19 -26 -45 -39 -46 -23 -54 -38 -33 -59 18 -18 95
-15 106 3 4 9 25 18 45 22 34 5 37 4 37 -19 0 -54 -45 -138 -73 -138 -6 0 -34
-22 -63 -50 -29 -27 -60 -50 -68 -50 -17 0 -29 -36 -24 -71 3 -21 9 -24 52
-27 27 -2 54 2 59 7 6 6 17 11 25 11 8 0 25 9 39 20 14 11 34 20 44 20 24 0
25 -43 3 -91 -19 -39 -112 -139 -130 -139 -7 0 -34 -20 -62 -45 -27 -25 -55
-45 -61 -45 -16 0 -35 -46 -27 -66 5 -14 17 -16 81 -12 41 3 80 10 87 16 7 5
30 13 50 17 20 4 44 16 54 26 9 10 25 19 36 19 17 0 18 -11 18 -160 l0 -160
28 -31 c26 -29 32 -31 66 -25 53 10 60 35 50 176 -4 63 -8 131 -9 150 -1 19
-5 48 -9 63 -11 38 7 58 26 28 7 -11 22 -21 33 -21 11 0 34 -8 50 -17 20 -10
56 -16 105 -17 l75 -1 3 28 c4 30 -35 77 -64 77 -22 0 -189 169 -211 215 -27
54 -36 105 -22 122 10 11 14 11 28 0 36 -31 97 -41 161 -27 33 7 64 20 69 28
16 28 1 51 -38 58 -20 4 -43 12 -51 19 -8 7 -24 15 -34 16 -20 4 -96 104 -96
125 0 9 11 9 38 3 89 -20 130 26 72 78 -18 15 -49 57 -70 93 -90 151 -102 165
-145 168 -34 2 -45 -2 -71 -30z"/>
<path d="M454 2085 c-18 -20 -37 -48 -40 -63 -3 -15 -17 -64 -30 -109 -14 -45
-25 -94 -24 -110 0 -98 2 -118 15 -137 8 -11 15 -33 15 -48 0 -15 4 -29 9 -32
4 -3 11 -28 14 -55 4 -35 18 -68 44 -107 21 -32 41 -63 46 -71 4 -7 12 -21 17
-30 6 -10 14 -27 19 -38 17 -37 196 -212 251 -246 30 -18 71 -47 91 -63 20
-17 61 -42 90 -56 29 -14 86 -42 128 -62 41 -21 80 -38 86 -38 6 0 26 -8 45
-18 111 -59 119 -72 63 -107 -38 -23 -47 -44 -38 -85 12 -56 95 -61 133 -8 31
43 132 88 132 58 0 -6 10 -14 23 -19 12 -5 42 -25 66 -45 23 -20 52 -36 63
-36 25 0 78 52 78 77 0 21 -30 53 -67 72 -13 6 -23 18 -23 26 0 14 93 68 150
89 14 5 32 14 40 21 8 7 40 20 70 29 30 10 76 31 103 47 26 16 51 29 55 29 5
0 21 14 37 30 16 17 34 30 41 30 26 0 133 97 261 235 10 11 44 61 76 111 57
91 87 159 87 196 0 10 10 38 21 61 29 55 40 243 17 279 -8 13 -23 50 -33 82
-10 33 -31 79 -48 103 -24 36 -34 44 -56 41 -24 -3 -26 -6 -23 -47 1 -24 7
-52 12 -62 14 -25 12 -116 -2 -155 -9 -26 -9 -38 1 -58 18 -32 13 -67 -37
-260 -6 -22 -20 -52 -31 -67 -12 -16 -21 -34 -21 -42 0 -8 -9 -22 -20 -32 -11
-10 -20 -24 -20 -31 0 -7 -13 -28 -29 -46 -15 -18 -31 -43 -35 -55 -4 -12 -18
-31 -32 -42 -13 -10 -24 -25 -24 -33 0 -8 -10 -19 -22 -25 -13 -6 -45 -30 -73
-54 -27 -25 -95 -67 -150 -94 -55 -27 -110 -59 -123 -71 -12 -12 -37 -25 -55
-28 -19 -3 -62 -22 -98 -41 -35 -19 -73 -35 -83 -35 -11 0 -27 -6 -35 -13 -9
-7 -33 -18 -54 -25 -39 -11 -60 -6 -129 29 -10 5 -23 6 -31 3 -8 -3 -19 2 -26
10 -12 14 -95 57 -185 95 -23 10 -47 26 -55 35 -7 9 -22 16 -32 16 -10 0 -25
9 -33 21 -8 12 -20 19 -28 17 -20 -7 -128 50 -128 67 0 9 -11 20 -24 25 -28
10 -126 106 -126 122 0 7 -12 25 -27 40 -27 29 -64 88 -103 168 -12 25 -26 53
-31 63 -5 9 -12 39 -16 65 -3 26 -12 54 -20 63 -9 11 -15 53 -19 130 -11 239
-11 235 15 263 21 22 23 31 15 54 -15 42 -48 41 -90 -3z"/>
<path d="M247 2103 c-4 -3 -7 -29 -7 -56 0 -90 70 -174 99 -119 6 11 6 24 -1
36 -5 10 -7 27 -4 39 8 32 -33 107 -60 107 -11 0 -24 -3 -27 -7z"/>
<path d="M2678 2058 c-10 -18 -19 -58 -20 -88 -3 -54 -3 -55 26 -55 24 0 30 6
43 43 20 61 14 126 -12 130 -14 2 -25 -7 -37 -30z"/>
<path d="M183 1928 c-5 -7 -7 -43 -5 -80 4 -82 31 -118 86 -118 l34 0 0 51 c1
47 -3 56 -46 105 -51 58 -55 60 -69 42z"/>
<path d="M2717 1859 c-35 -38 -44 -55 -37 -64 6 -7 8 -25 4 -40 -6 -26 -6 -26
42 -23 40 2 50 7 52 23 2 11 11 27 19 36 9 11 13 33 11 65 -4 70 -30 71 -91 3z"/>
<path d="M144 1653 c8 -60 59 -116 128 -139 62 -20 92 -16 96 14 7 45 -153
172 -215 172 -13 0 -15 -9 -9 -47z"/>
<path d="M2741 1667 c-74 -37 -116 -89 -106 -130 9 -34 29 -40 72 -22 19 8 44
15 54 15 28 0 79 86 79 133 0 47 -13 48 -99 4z"/>
<path d="M212 1454 c-7 -3 -17 -14 -22 -25 -20 -36 36 -108 73 -94 7 3 19 -1
26 -9 17 -20 93 -31 120 -17 12 7 21 22 21 35 0 29 -44 75 -79 82 -14 3 -33 9
-42 14 -23 12 -81 20 -97 14z"/>
<path d="M2709 1451 c-124 -25 -198 -145 -94 -152 17 -1 52 8 78 20 27 12 52
20 55 17 3 -4 18 6 34 21 37 36 38 80 2 93 -14 6 -28 9 -32 9 -4 -1 -23 -4
-43 -8z"/>
<path d="M2510 1253 c-30 -11 -90 -77 -90 -99 0 -40 34 -46 110 -21 19 6 59
10 89 8 37 -2 56 1 62 10 11 17 11 70 1 85 -8 12 -148 26 -172 17z"/>
<path d="M328 1243 c-20 -3 -30 -12 -34 -30 -9 -33 21 -60 74 -68 20 -3 51
-10 68 -15 40 -13 100 -13 125 0 18 10 18 13 4 40 -8 16 -32 41 -52 55 -31 20
-48 25 -98 24 -33 -1 -72 -4 -87 -6z"/>
<path d="M576 1085 c-16 -8 -47 -18 -70 -21 -22 -3 -50 -9 -61 -14 -11 -5 -29
-10 -39 -12 -29 -4 -30 -22 -3 -53 22 -26 29 -28 127 -33 85 -4 105 -2 114 10
6 9 25 18 43 22 36 8 49 38 24 58 -39 32 -81 58 -93 58 -7 0 -26 -7 -42 -15z"/>
<path d="M2305 1057 c-37 -32 -38 -33 -21 -58 41 -64 238 -66 297 -3 24 26 18
44 -15 44 -13 0 -58 11 -100 25 -99 32 -115 32 -161 -8z"/>
<path d="M2165 923 c-11 -2 -30 -6 -42 -8 -12 -3 -24 -14 -28 -25 -16 -50 43
-83 165 -95 87 -8 130 4 130 35 0 15 -13 27 -42 41 -24 11 -54 26 -68 33 -29
16 -86 25 -115 19z"/>
<path d="M725 911 c-43 -14 -126 -63 -132 -77 -22 -59 153 -63 263 -6 35 18
54 38 54 57 0 2 -7 11 -16 19 -16 17 -127 21 -169 7z"/>
<path d="M970 831 c-8 -6 -25 -11 -37 -11 -43 0 -142 -121 -129 -156 9 -22 62
-16 129 15 34 15 88 31 120 35 90 10 130 45 81 71 -10 6 -30 18 -44 27 -32 21
-100 32 -120 19z"/>
<path d="M1902 804 c-48 -22 -53 -27 -50 -52 3 -26 6 -27 73 -35 72 -7 154
-31 190 -54 26 -17 54 -16 61 1 7 18 -27 85 -58 113 -31 28 -93 53 -132 52
-17 0 -55 -12 -84 -25z"/>
</g>
</svg>
